<?xml version="1.0" encoding="UTF-8"?><svg id="_лой_2" xmlns="http://www.w3.org/2000/svg" width="208.58" height="92.64" viewBox="0 0 208.58 92.64"><defs><style>.cls-1{fill:#fff;}.cls-2{fill:#875226;}</style></defs><g id="_лой_1-2"><g><path class="cls-2" d="M92.62,43.16c-.85-.84-1.6-1.71-2.28-2.63-.35-.48-.67-.97-.95-1.49,1.06,1.03,1.95,2.11,2.7,3.23,.19,.29,.37,.58,.53,.89Z"/><path class="cls-2" d="M92.62,43.16c-.85-.84-1.6-1.71-2.28-2.63-.35-.48-.67-.97-.95-1.49,1.06,1.03,1.95,2.11,2.7,3.23,.19,.29,.37,.58,.53,.89Z"/><path class="cls-2" d="M208.29,18.7c-.97-5.94-5.63-9.69-6.16-10.09L190.99,0l3.21,13.67s.72,3.81-1.16,4.96c-.02,0-.14,.08-.38,.15h-12.97v4.29c-.17-.11-.34-.22-.51-.34-.97-.64-1.96-1.26-3.1-1.93-1.11-.63-2.12-1.15-3.09-1.58l-.98-.44h-16.04v6.45c-.15-.17-.3-.34-.45-.5-4.15-4.48-9.9-6.75-17.09-6.75s-12.43,2.05-16.49,6.09v-5.29h-18.28c-4.13,0-7.36,.75-9.79,2.28v-2.28h-18.27c-4.74,0-8.3,.99-10.83,3v-3h-19.97v4.31c-.25-.25-.51-.5-.79-.75-2.64-2.36-6.48-3.56-11.41-3.56H15.95c-.26-.07-.39-.14-.42-.16-1.88-1.15-1.18-4.94-1.18-4.94L17.53,0,6.42,8.59c-.53,.41-5.19,4.17-6.14,10.1-1.26,7.66,1.69,13.64,8.27,16.85,.34,.16,.67,.31,1.01,.46v27.84h23.04c5.07,0,9.18-1.16,12.2-3.45v3.45h32.4c4.08,0,7.35-.63,9.88-1.93v1.93h18.19c6.09,0,10.38-1.41,13.11-4.32,.8-.85,1.48-1.75,2.04-2.69,.28,.34,.56,.67,.86,.99,4.12,4.5,9.89,6.77,17.15,6.77s12.93-2.26,17.08-6.72c.16-.17,.31-.34,.46-.52v6.49h19.97v-18.37c.55,.5,1.09,1.02,1.64,1.57,.62,.61,1.21,1.24,1.76,1.82,.12,.14,.24,.26,.35,.39v14.59h19.96v-28.11c.12-.06,.23-.11,.35-.17,6.69-3.27,9.55-9.1,8.29-16.86ZM64.77,46v-2.62c.72,.7,1.5,1.38,2.32,2.02,.24,.2,.49,.4,.75,.6h-3.07Zm25.57-5.47c-.35-.48-.67-.97-.95-1.49,1.06,1.03,1.95,2.11,2.7,3.23,.19,.29,.37,.58,.53,.89-.85-.84-1.6-1.71-2.28-2.63Zm3.41,5.47c-.27-1.01-.64-1.96-1.12-2.83,.78,.79,1.62,1.53,2.52,2.23l.75,.6h-2.15Zm21.76-8.69c-.3-.23-.59-.46-.9-.69h1c-.04,.23-.07,.46-.1,.69Zm25.76,5.56c-.05,.58-.19,1.22-.41,1.86-.23,.64-.62,1.23-1.16,1.79,0,0-.32,.18-1.27,.18s-1.27-.16-1.28-.16c-.57-.58-.96-1.17-1.17-1.75-.23-.68-.37-1.29-.4-1.84-.05-.83-.09-1.38-.09-1.64,0-2,.38-3.59,1.11-4.72,.18-.27,.44-.67,1.83-.67,.89,0,1.22,.16,1.24,.16,.57,.58,.96,1.18,1.17,1.75,.24,.7,.38,1.34,.43,1.91,.06,.78,.1,1.31,.1,1.56,0,.28-.04,.8-.1,1.57Z"/><path class="cls-1" d="M43.99,43.67c-.98-1.57-2.65-2.78-5.01-3.64v-.09c1.39-.63,2.56-1.54,3.52-2.74,.96-1.2,1.44-2.63,1.44-4.3,0-.28-.01-.57-.04-.87-.04-.3-.08-.59-.15-.88-.34-1.86-1.37-3.55-3.07-5.08-1.7-1.52-4.39-2.29-8.08-2.29H15.43c-.85-.15-1.73-.42-2.5-.89-5.13-3.13-3.45-10.34-3.45-10.34,0,0-3.6,2.78-4.27,6.95-1.12,6.83,2.14,9.89,5.55,11.55,1.4,.69,2.69,1.04,3.8,1.2v26.59h18.04c4.22,0,7.42-.92,9.59-2.77,2.18-1.84,3.26-4.16,3.26-6.96,0-2.05-.48-3.86-1.46-5.44Zm-9.69,6.55c-.59,.48-1.24,.82-1.93,1.01-.48,.13-.92,.21-1.33,.24-.41,.03-.75,.04-1.03,.04h-5.49V31.1h5.25c1.29,0,2.41,.16,3.35,.45,.95,.3,1.42,1.08,1.42,2.34,0,1.01-.31,1.72-.92,2.13-.61,.41-1.3,.66-2.06,.75-.25,.04-.51,.06-.78,.08-.26,.01-.52,.02-.77,.02h-3.64v7.32h3.54c.28,0,.63,0,1.04,.03,.41,.01,.82,.07,1.23,.16,.75,.16,1.45,.49,2.08,.99,.63,.51,.94,1.36,.94,2.55,0,1.04-.3,1.81-.9,2.3Z"/><path class="cls-1" d="M59.77,23.78V58.84h-9.97V23.78h9.97Z"/><path class="cls-1" d="M88.88,31.62h-10.06c-.16,0-.35,0-.57,.02-.22,.02-.46,.04-.71,.07-.41,.09-.78,.28-1.11,.57-.33,.28-.5,.74-.5,1.37,0,.22,.03,.44,.09,.66,.06,.22,.16,.42,.28,.61,.28,.44,.75,.92,1.39,1.44,.65,.52,1.54,1.17,2.67,1.96,.72,.54,1.42,1.04,2.1,1.51,.68,.47,1.31,.95,1.91,1.42,1.48,1.2,2.66,2.46,3.54,3.78,.88,1.32,1.32,2.99,1.32,5.01,0,2.21-.86,4.22-2.57,6.05-1.72,1.83-4.87,2.74-9.47,2.74h-13.18v-7.84h11.06c.98,0,1.68-.14,2.1-.43,.43-.28,.69-.6,.78-.94,.03-.09,.05-.2,.07-.31,.02-.11,.02-.21,.02-.31,0-.31-.05-.61-.14-.87-.09-.27-.24-.53-.43-.78-.32-.38-.74-.79-1.28-1.23-.54-.44-1.2-.96-1.98-1.56-.69-.54-1.38-1.05-2.06-1.56-.68-.5-1.33-1.01-1.96-1.51-1.58-1.23-2.88-2.54-3.92-3.95s-1.56-3.19-1.56-5.36v-.47c0-.16,.02-.31,.05-.47,.19-1.86,1.06-3.57,2.62-5.13,1.56-1.56,4.29-2.34,8.2-2.34h13.28v7.84Z"/><path class="cls-1" d="M116.94,31.62h-10.06c-.16,0-.35,0-.57,.02-.22,.02-.46,.04-.71,.07-.41,.09-.78,.28-1.11,.57-.33,.28-.5,.74-.5,1.37,0,.22,.03,.44,.09,.66,.06,.22,.16,.42,.28,.61,.28,.44,.75,.92,1.39,1.44,.65,.52,1.54,1.17,2.67,1.96,.72,.54,1.42,1.04,2.1,1.51,.68,.47,1.31,.95,1.91,1.42,1.48,1.2,2.66,2.46,3.54,3.78,.88,1.32,1.32,2.99,1.32,5.01,0,2.21-.86,4.22-2.57,6.05-1.72,1.83-4.88,2.74-9.47,2.74h-13.18v-7.84h11.06c.98,0,1.68-.14,2.1-.43,.43-.28,.69-.6,.78-.94,.03-.09,.05-.2,.07-.31,.02-.11,.02-.21,.02-.31,0-.31-.05-.61-.14-.87-.09-.27-.24-.53-.43-.78-.32-.38-.74-.79-1.28-1.23-.54-.44-1.2-.96-1.98-1.56-.69-.54-1.38-1.05-2.06-1.56-.68-.5-1.33-1.01-1.96-1.51-1.58-1.23-2.88-2.54-3.92-3.95s-1.56-3.19-1.56-5.36v-.47c0-.16,.02-.31,.05-.47,.19-1.86,1.06-3.57,2.62-5.13,1.56-1.56,4.29-2.34,8.2-2.34h13.28v7.84Z"/><path class="cls-1" d="M124.97,28.13c3.15-3.43,7.64-5.15,13.46-5.15s10.24,1.72,13.42,5.15c3.18,3.43,4.77,7.83,4.77,13.18s-1.59,9.74-4.77,13.16c-3.18,3.42-7.65,5.13-13.42,5.13s-10.32-1.72-13.46-5.15c-3.15-3.43-4.72-7.81-4.72-13.13s1.58-9.75,4.72-13.18Zm5.62,15.14c.06,.99,.28,2.04,.66,3.14,.47,1.32,1.25,2.54,2.34,3.64,1.09,1.1,2.7,1.65,4.84,1.65s3.71-.55,4.8-1.65c1.09-1.1,1.87-2.31,2.34-3.64,.38-1.1,.61-2.15,.68-3.14,.08-.99,.12-1.65,.12-1.96s-.04-.97-.12-1.96c-.08-.99-.31-2.04-.68-3.14-.47-1.32-1.25-2.54-2.34-3.64s-2.69-1.65-4.8-1.65c-2.74,0-4.75,.98-6.02,2.95-1.28,1.97-1.91,4.45-1.91,7.44,0,.32,.03,.97,.09,1.96Z"/><path class="cls-1" d="M197.8,31.07c-1.13,.55-2.19,.89-3.15,1.08v26.69h-9.96v-11.44c-.51-.63-1.07-1.27-1.68-1.93-.62-.66-1.25-1.33-1.92-1.99-.88-.88-1.8-1.74-2.76-2.57-.96-.84-1.93-1.63-2.9-2.39-.76-.6-1.52-1.16-2.27-1.7-.76-.53-1.5-1.02-2.22-1.46v23.48h-9.97V23.78h9.97c.85,.38,1.74,.84,2.67,1.37,.92,.54,1.86,1.12,2.81,1.75,.91,.6,1.82,1.24,2.74,1.94,.91,.69,1.78,1.4,2.6,2.12,.53,.48,1.05,.94,1.56,1.4,.5,.45,.96,.9,1.37,1.34v-9.92h8.54c.82-.16,1.67-.43,2.41-.88,5.13-3.13,3.44-10.33,3.44-10.33,0,0,3.6,2.77,4.28,6.94,1.11,6.83-2.15,9.89-5.56,11.56Z"/></g><g><path class="cls-1" d="M46.71,80.25c0-1.27,.18-2.39,.55-3.34,.37-.95,.86-1.74,1.47-2.37,.61-.63,1.31-1.1,2.11-1.41,.79-.31,1.61-.47,2.44-.47,1.94,0,3.43,.61,4.46,1.82,1.03,1.21,1.55,3.05,1.55,5.53v.43c0,.18,0,.34-.03,.48h-9.87c.11,1.5,.54,2.63,1.3,3.41,.76,.78,1.94,1.16,3.55,1.16,.9,0,1.67-.08,2.29-.24,.62-.16,1.08-.31,1.4-.46l.36,2.16c-.31,.17-.86,.34-1.65,.53-.79,.18-1.68,.28-2.67,.28-1.26,0-2.34-.19-3.26-.57-.91-.38-1.67-.9-2.26-1.57s-1.03-1.46-1.32-2.37c-.29-.92-.43-1.92-.43-3.01Zm9.9-1.41c.02-1.16-.27-2.12-.87-2.87-.6-.75-1.43-1.12-2.48-1.12-.59,0-1.11,.12-1.57,.35-.45,.23-.84,.53-1.15,.9-.31,.37-.56,.79-.73,1.27-.18,.48-.29,.97-.35,1.47h7.15Z"/><path class="cls-1" d="M71.62,87.43c-.2-.41-.45-.86-.75-1.36-.3-.5-.62-1.01-.97-1.54s-.71-1.05-1.08-1.57c-.37-.52-.73-1.01-1.08-1.47-.35,.46-.71,.96-1.08,1.48-.37,.53-.73,1.05-1.07,1.58-.34,.53-.66,1.04-.96,1.54-.3,.5-.54,.94-.75,1.33h-2.66c.65-1.26,1.42-2.54,2.31-3.84,.9-1.3,1.79-2.54,2.67-3.73l-4.77-6.85h2.91l3.44,5.04,3.46-5.04h2.74l-4.66,6.68c.89,1.2,1.8,2.47,2.73,3.81s1.72,2.65,2.37,3.92h-2.83Z"/><path class="cls-1" d="M82.85,87.76c-1.16,0-2.19-.19-3.06-.55s-1.62-.89-2.22-1.55c-.6-.67-1.05-1.46-1.34-2.37-.3-.92-.44-1.93-.44-3.04s.16-2.12,.48-3.05,.78-1.72,1.37-2.4c.59-.67,1.32-1.2,2.18-1.58,.86-.38,1.82-.57,2.87-.57,.65,0,1.29,.06,1.94,.17,.65,.11,1.27,.29,1.86,.53l-.58,2.19c-.39-.18-.84-.33-1.34-.44-.51-.11-1.05-.17-1.62-.17-1.44,0-2.55,.45-3.31,1.36-.77,.91-1.15,2.23-1.15,3.96,0,.78,.09,1.49,.26,2.13,.18,.65,.45,1.2,.83,1.66,.38,.46,.86,.82,1.46,1.07,.59,.25,1.31,.37,2.16,.37,.68,0,1.3-.06,1.86-.19,.55-.13,.99-.27,1.3-.42l.36,2.16c-.15,.09-.36,.18-.64,.26-.28,.08-.59,.16-.94,.22s-.73,.12-1.12,.17c-.4,.05-.78,.07-1.15,.07Z"/><path class="cls-1" d="M89.47,87.43v-21.06l2.58-.44v7.37c.48-.18,.99-.33,1.54-.43,.54-.1,1.08-.15,1.62-.15,1.15,0,2.1,.16,2.85,.49,.76,.32,1.36,.78,1.82,1.36,.45,.58,.77,1.28,.96,2.09,.18,.81,.28,1.71,.28,2.69v8.09h-2.58v-7.54c0-.89-.06-1.64-.18-2.27-.12-.63-.32-1.14-.6-1.52-.28-.39-.65-.67-1.11-.85-.46-.17-1.04-.26-1.72-.26-.28,0-.56,.02-.86,.05-.3,.04-.58,.08-.85,.12-.27,.05-.51,.1-.72,.15-.21,.06-.37,.1-.46,.14v11.97h-2.58Z"/><path class="cls-1" d="M109.96,72.65c1.03,0,1.91,.13,2.62,.4,.71,.27,1.28,.65,1.72,1.14,.43,.49,.74,1.07,.93,1.75,.18,.67,.28,1.42,.28,2.23v9.01c-.22,.04-.53,.09-.93,.15s-.85,.12-1.34,.18c-.5,.06-1.04,.11-1.62,.15s-1.16,.07-1.73,.07c-.81,0-1.56-.08-2.25-.25-.68-.17-1.27-.43-1.77-.79-.5-.36-.89-.84-1.16-1.43-.28-.59-.42-1.3-.42-2.13s.16-1.48,.48-2.05c.32-.57,.76-1.04,1.32-1.39,.55-.35,1.2-.61,1.94-.78,.74-.17,1.51-.25,2.33-.25,.26,0,.53,.01,.8,.04,.28,.03,.54,.06,.79,.11,.25,.05,.47,.09,.65,.12,.18,.04,.31,.07,.39,.08v-.72c0-.42-.05-.84-.14-1.26-.09-.42-.26-.79-.5-1.11-.24-.32-.57-.58-.98-.78s-.96-.29-1.62-.29c-.85,0-1.59,.06-2.23,.18-.64,.12-1.11,.25-1.43,.38l-.3-2.13c.33-.15,.89-.29,1.66-.43s1.62-.21,2.52-.21Zm.22,12.92c.61,0,1.15-.01,1.62-.04,.47-.03,.86-.08,1.18-.15v-4.3c-.18-.09-.48-.17-.9-.24-.42-.06-.92-.1-1.51-.1-.39,0-.8,.03-1.23,.08s-.83,.17-1.19,.35-.66,.42-.9,.72c-.24,.3-.36,.71-.36,1.21,0,.92,.3,1.57,.89,1.93s1.4,.54,2.41,.54Z"/><path class="cls-1" d="M119.77,73.43c.59-.15,1.38-.3,2.36-.47,.98-.17,2.11-.25,3.38-.25,1.15,0,2.1,.16,2.85,.49,.76,.32,1.36,.78,1.82,1.36,.45,.58,.77,1.28,.96,2.09,.18,.81,.28,1.71,.28,2.69v8.09h-2.58v-7.54c0-.89-.06-1.64-.18-2.27s-.32-1.14-.6-1.52c-.28-.39-.65-.67-1.11-.85-.46-.17-1.03-.26-1.72-.26-.28,0-.56,0-.86,.03-.3,.02-.58,.04-.85,.07-.27,.03-.51,.06-.72,.1-.21,.04-.36,.07-.46,.08v12.17h-2.58v-14Z"/><path class="cls-1" d="M144.71,85.99c-.22,.15-.65,.34-1.29,.57-.64,.23-1.38,.35-2.23,.35s-1.69-.14-2.45-.42c-.77-.28-1.44-.71-2.01-1.29-.57-.58-1.03-1.31-1.36-2.18-.33-.87-.5-1.9-.5-3.1,0-1.05,.16-2.02,.47-2.9,.31-.88,.77-1.64,1.37-2.27,.6-.64,1.33-1.14,2.2-1.5s1.85-.54,2.94-.54c1.2,0,2.25,.09,3.15,.26s1.65,.34,2.26,.49v12.86c0,2.22-.57,3.82-1.72,4.82s-2.88,1.5-5.21,1.5c-.91,0-1.76-.07-2.56-.22-.8-.15-1.5-.32-2.09-.53l.47-2.24c.52,.2,1.15,.38,1.9,.54,.75,.16,1.53,.24,2.34,.24,1.53,0,2.64-.3,3.31-.91,.67-.61,1.01-1.58,1.01-2.91v-.61Zm-.03-10.7c-.26-.07-.61-.14-1.04-.21-.43-.06-1.02-.1-1.76-.1-1.39,0-2.45,.45-3.2,1.36-.75,.91-1.12,2.11-1.12,3.6,0,.83,.11,1.54,.32,2.13,.21,.59,.5,1.08,.86,1.47,.36,.39,.78,.67,1.25,.86,.47,.19,.96,.28,1.46,.28,.68,0,1.31-.1,1.88-.29,.57-.19,1.03-.42,1.36-.68v-8.43Z"/><path class="cls-1" d="M150.89,80.25c0-1.27,.18-2.39,.55-3.34,.37-.95,.86-1.74,1.47-2.37,.61-.63,1.31-1.1,2.11-1.41,.79-.31,1.61-.47,2.44-.47,1.94,0,3.43,.61,4.46,1.82,1.04,1.21,1.55,3.05,1.55,5.53v.43c0,.18,0,.34-.03,.48h-9.87c.11,1.5,.54,2.63,1.3,3.41,.76,.78,1.94,1.16,3.55,1.16,.91,0,1.67-.08,2.29-.24s1.08-.31,1.4-.46l.36,2.16c-.31,.17-.86,.34-1.65,.53s-1.68,.28-2.67,.28c-1.26,0-2.34-.19-3.26-.57-.92-.38-1.67-.9-2.26-1.57-.59-.67-1.03-1.46-1.32-2.37-.29-.92-.43-1.92-.43-3.01Zm9.9-1.41c.02-1.16-.27-2.12-.87-2.87-.6-.75-1.43-1.12-2.48-1.12-.59,0-1.11,.12-1.57,.35-.45,.23-.84,.53-1.15,.9-.31,.37-.56,.79-.73,1.27-.18,.48-.29,.97-.35,1.47h7.15Z"/></g></g></svg>